<svg width="500" height="500" viewBox="0 0 500 500" fill="red" xmlns="http://www.w3.org/2000/svg">
<path d="M192.871 75.6838C190.039 78.4181 189.941 79.9806 191.992 88.4767C193.164 92.7736 194.336 95.4103 196.094 96.6799C200.098 99.9025 204.297 99.1213 206.641 94.6291C207.91 92.09 207.91 91.1135 206.152 84.2775C204.004 76.172 201.758 73.2424 197.559 73.2424C196.289 73.2424 194.141 74.3166 192.871 75.6838Z" fill="#71293B"/>
<path d="M297.949 74.9025C296.582 76.0744 295.117 79.297 293.848 84.2775C292.09 91.1135 292.09 92.09 293.359 94.6291C295.703 99.1213 299.902 99.9025 303.906 96.6799C305.664 95.4103 306.836 92.7736 308.008 88.4767C310.059 79.9806 309.961 78.4181 307.129 75.6838C304.395 72.8517 300.879 72.5588 297.949 74.9025Z" fill="#71293B"/>
<path d="M165.527 94.2384C161.328 98.3399 162.207 101.758 168.848 108.496C174.609 114.16 177.051 115.234 181.152 113.672C183.887 112.598 185.645 107.91 184.473 104.785C182.52 99.5118 173.535 91.797 169.434 91.797C168.555 91.797 166.797 92.8712 165.527 94.2384Z" fill="#71293B"/>
<path d="M326.66 92.9688C323.535 94.6289 317.383 100.879 315.723 103.906C313.184 108.887 316.797 114.258 322.754 114.258C324.609 114.258 326.953 112.598 331.152 108.496C337.793 101.758 338.672 98.3398 334.473 94.2383C331.934 91.6016 329.688 91.2109 326.66 92.9688Z" fill="#71293B"/>
<path d="M207.227 114.746C189.453 121.289 177.734 138.77 177.734 158.691C177.734 174.316 185.645 192.383 192.48 192.383C193.359 192.383 195.313 191.406 196.777 190.332C198.926 188.574 199.316 187.598 198.926 184.668C198.73 182.715 197.266 178.32 195.703 174.805C193.164 169.238 192.871 167.285 192.871 158.691C192.871 150.391 193.262 148.242 195.215 144.336C200.391 133.789 210.645 126.953 221.289 126.953C229.59 126.953 235.449 129.199 241.797 135.059C248.926 141.602 251.074 141.602 258.203 135.059C273.34 121.191 294.629 125.293 304.395 143.848C306.836 148.438 307.129 149.902 307.129 158.691C307.129 167.383 306.836 169.141 304.102 175.293C296.094 193.848 279.492 210.938 258.203 222.754C251.367 226.465 250.391 226.758 247.656 225.781C242.285 223.73 229.492 215.43 221.973 209.18C213.867 202.539 210.449 201.66 207.031 205.078C203.711 208.398 204.492 212.891 209.277 217.48C219.727 227.637 243.164 241.504 250 241.504C257.91 241.504 279.785 228.027 293.652 214.551C322.266 186.816 330.176 155.078 314.16 131.641C305.762 119.434 292.676 112.305 278.32 112.305C269.336 112.305 263.184 114.062 255.664 118.555L250 121.973L244.434 118.555C236.719 113.965 230.566 112.305 221.289 112.402C215.527 112.402 211.719 112.988 207.227 114.746Z" fill="#71293B"/>
<path d="M148.438 120.41C145.02 122.168 143.262 126.074 144.531 129.395C145.606 132.324 149.219 134.082 157.91 135.84C163.867 137.109 164.063 137.012 166.504 134.766C169.531 131.934 169.824 127.051 167.09 124.609C166.016 123.633 162.012 122.07 158.008 120.996C154.102 120.02 150.879 119.141 150.879 119.141C150.879 119.141 149.805 119.727 148.438 120.41Z" fill="#71293B"/>
<path d="M341.504 121.094C333.496 123.242 331.055 125.195 331.055 129.395C331.055 132.91 334.375 136.719 337.5 136.719C340.82 136.719 352.734 133.105 354.199 131.641C356.25 129.492 356.152 124.219 353.906 122.07C351.074 119.336 348.73 119.141 341.504 121.094Z" fill="#71293B"/>
<path d="M48.5352 187.598C44.8242 189.746 43.4571 194.336 43.4571 205.078C43.4571 215.332 44.1406 217.871 49.5117 227.637C49.7071 227.93 39.6485 228.418 27.1485 228.711L4.49221 229.297L2.24612 231.934C-0.488258 235.059 -0.683571 240.137 1.56252 248.535C4.2969 259.277 12.6953 269.922 21.2891 273.828L25.3906 275.684V283.203C25.3906 301.465 33.7891 314.16 51.3672 322.363C56.25 324.707 59.5703 326.856 59.5703 327.735C59.5703 332.91 68.8477 343.555 77.4414 348.145C80.1758 349.61 82.7149 351.074 82.9102 351.172C83.1055 351.367 82.2266 352.442 80.957 353.516C78.711 355.567 77.9297 355.567 56.1524 355.078C35.6446 354.59 33.3008 354.688 29.6875 356.348C21.3867 360.156 18.8477 366.699 20.5078 379.981C22.9492 400.098 33.2031 420.313 43.3594 424.902C51.5625 428.613 53.125 428.027 84.4727 408.789C96.9727 401.074 103.613 397.559 104.98 397.852C106.055 398.145 110.059 399.414 113.77 400.781C122.559 403.906 135.254 405.567 143.457 404.785C151.758 403.906 161.523 401.758 165.625 399.805C169.824 397.754 171.387 393.555 169.434 389.551C167.285 385.547 164.16 385.156 155.469 387.695C140.039 392.285 120.898 390.039 106.738 381.836C100.488 378.223 89.8438 368.457 89.8438 366.309C89.8438 365.43 92.5781 363.184 96.2891 360.938L102.832 357.227L111.23 358.301C115.918 358.887 123.34 359.375 127.637 359.375C135.059 359.375 135.742 359.18 137.598 356.836C140.234 353.516 140.137 351.27 137.402 348.047C135.254 345.508 134.375 345.313 123.926 344.629C92.9688 342.578 73.2422 333.203 73.2422 320.508C73.2422 316.406 70.7031 313.965 64.4531 312.012C48.0469 306.836 40.0391 297.754 40.0391 284.18C40.0391 280.664 40.5274 276.172 41.0156 274.219C42.5781 268.848 40.3321 265.039 34.8633 263.672C28.125 261.817 21.6797 257.129 18.4571 251.563C13.3789 242.676 12.1094 243.164 40.8203 242.871C54.5899 242.774 69.1406 242.774 73.0469 242.871C96.2891 243.652 116.992 255.762 129.297 275.781C131.641 279.59 141.797 297.852 151.855 316.406C161.914 334.961 171.191 351.074 172.559 352.246C173.828 353.516 175.977 354.492 177.344 354.492C180.273 354.492 184.57 350.488 184.57 347.656C184.57 346.582 179.199 335.84 172.754 324.024L160.84 302.344L163.184 298.047C166.211 292.188 177.93 279.785 183.496 276.563C187.207 274.317 189.16 273.926 194.824 273.926C206.836 274.024 214.746 280.274 215.625 290.527C216.309 299.219 212.5 305.176 202.539 311.133C200.879 312.11 200.684 313.672 200.586 324.805C200.586 331.836 200 339.551 199.219 342.285C197.266 350 192.09 360.352 187.109 366.602C182.129 373.047 181.445 376.367 184.57 379.688C187.891 383.301 192.48 382.617 196.68 377.832C208.301 365.039 215.723 344.727 215.82 325.781C215.918 320.606 216.211 319.629 218.262 318.067C220.605 316.406 220.898 316.406 225.195 318.36C233.887 322.168 239.258 320.215 239.258 313.281C239.258 309.375 237.598 307.617 232.129 305.274C228.809 303.906 228.516 303.516 229.199 301.074C229.59 299.61 229.98 295.02 229.883 291.016C229.883 281.641 227.148 275.098 220.703 269.141C214.941 263.672 210.156 261.231 202.344 259.766C194.238 258.106 186.719 258.985 179.297 262.5L173.145 265.332L171.875 260.449C169.824 252.442 161.719 237.305 155.469 229.981C146.484 219.336 133.203 209.863 121.094 205.567C115.527 203.516 53.0274 186.524 51.4649 186.524C50.7813 186.524 49.5117 187.012 48.5352 187.598ZM88.086 211.328C116.309 219.043 123.633 221.875 133.301 229.004C144.922 237.598 154.883 252.735 158.594 267.188C160.742 275.684 160.645 276.856 156.348 282.227L152.539 287.11L147.852 278.516C138.086 260.547 129.004 249.902 116.406 241.699C104.98 234.375 87.9883 228.516 78.0274 228.516C71.9727 228.516 69.6289 227.539 65.2344 223.145C60.7422 218.555 58.3985 213.77 57.8125 207.617C57.4219 203.32 57.5195 202.93 59.1797 203.516C60.2539 203.809 73.2422 207.324 88.086 211.328ZM66.1133 370.117C74.5117 370.117 75.0977 370.215 75.7813 372.266C76.1719 373.535 79.4922 377.637 83.1055 381.445L89.8438 388.379L70.3125 400.195C59.4727 406.738 50.3906 412.109 49.9024 412.109C49.5117 412.109 47.7539 410.254 46.0938 407.91L43.0664 403.613L54.7852 398.438C66.7969 393.067 69.336 391.016 69.336 386.817C69.336 383.594 65.7227 379.883 62.5977 379.883C61.2305 379.883 55.2735 382.129 49.4141 384.766C43.4571 387.5 38.3789 389.649 37.9883 389.649C36.9141 389.649 36.3281 387.402 35.1563 379.004C34.5703 374.61 34.375 370.606 34.7656 369.922C35.2539 369.141 38.6719 369.043 46.2891 369.531C52.2461 369.824 61.1328 370.117 66.1133 370.117Z" fill="#71293B"/>
<path d="M426.074 192.285C414.258 195.606 405.567 198.535 404.297 199.61C401.367 202.344 401.953 207.617 405.469 210.254L408.203 212.305L424.024 208.008C432.813 205.762 440.527 203.614 441.211 203.418C441.992 203.028 442.383 204.004 442.383 206.055C442.383 211.914 440.137 217.09 435.059 222.364L430.176 227.637L420.996 228.614C402.539 230.469 384.668 238.77 371.582 251.465C363.965 258.887 359.18 265.528 352.149 278.516L347.461 287.11L343.555 282.129C339.942 277.539 339.649 276.758 340.234 272.754C341.895 260.84 349.707 245.215 358.984 235.938C364.453 230.371 375.391 222.559 379.59 221.289C382.52 220.313 385.742 216.114 385.742 213.184C385.742 210.352 381.738 206.055 379.004 206.055C375.879 206.055 362.891 213.184 355.859 218.848C343.848 228.321 331.543 246.875 328.027 260.547L326.856 265.332L320.703 262.5C313.281 258.985 305.762 258.106 297.656 259.766C289.844 261.231 285.059 263.672 279.297 269.141C272.754 275.293 270.117 281.641 270.02 291.504C270.02 295.801 270.41 300.293 270.801 301.563C271.484 303.418 271.094 303.906 267.383 305.567C262.109 307.813 260.449 309.766 260.547 313.574C260.742 320.215 266.309 322.071 274.805 318.36C279.102 316.406 279.395 316.406 281.738 318.067C283.887 319.629 284.082 320.508 284.18 326.66C284.277 340.43 288.379 355.664 295.02 366.895C296.875 370.02 302.539 376.758 307.715 381.934C316.016 390.43 318.164 391.895 327.246 396.289C340.723 402.832 348.242 404.59 362.305 404.492C373.633 404.492 380.664 403.125 391.699 398.828L396.289 397.071L420.117 411.524C434.668 420.215 445.313 426.074 447.559 426.465C452.637 427.246 459.18 424.512 463.086 419.922C471.582 409.961 477.734 395.215 479.492 380.176C481.152 366.602 478.613 360.156 470.313 356.348C466.699 354.688 464.356 354.59 443.848 355.078C422.07 355.567 421.289 355.567 419.043 353.516C417.774 352.442 416.895 351.367 417.09 351.172C417.285 351.074 419.824 349.61 422.559 348.145C431.152 343.555 440.43 332.91 440.43 327.735C440.43 326.856 443.75 324.707 448.633 322.461C466.113 314.258 474.609 301.367 474.609 283.203V275.684L478.711 273.828C487.305 269.922 495.703 259.278 498.438 248.535C500.684 240.137 500.488 235.059 497.754 231.934L495.508 229.297L472.852 228.711C460.352 228.418 450.293 227.93 450.488 227.637C455.859 217.871 456.543 215.332 456.543 205.078C456.543 194.141 455.176 189.649 451.27 187.5C448.438 186.035 447.656 186.231 426.074 192.285ZM461.524 243.164C487.598 243.164 486.524 242.774 481.543 251.563C478.32 257.129 471.875 261.817 465.137 263.672C459.668 265.039 457.422 268.848 458.984 274.219C460.742 280.664 460.156 290.039 457.617 295.41C454.004 303.321 447.949 307.617 433.496 312.891C428.906 314.551 426.758 317.285 426.758 321.387C426.758 325.586 422.266 331.25 415.82 335.254C408.594 339.746 386.817 344.727 374.414 344.727C366.895 344.727 362.891 346.094 361.426 349.219C359.863 352.637 360.059 353.809 362.402 356.836C364.258 359.18 364.942 359.375 372.363 359.375C376.66 359.375 384.082 358.887 388.672 358.301L397.168 357.227L403.711 360.938C407.617 363.281 410.156 365.332 410.156 366.309C410.156 369.043 397.949 379.395 390.332 383.106C380.469 387.989 372.656 389.746 361.524 389.746C350.488 389.649 343.262 387.989 333.106 383.106C323.438 378.516 311.426 366.699 306.445 356.934C300.586 345.508 299.512 340.918 299.414 325.781C299.317 313.672 299.121 312.11 297.461 311.133C287.5 305.176 283.692 299.219 284.375 290.528C285.254 280.274 293.164 274.024 305.176 273.926C310.84 273.926 312.793 274.317 316.504 276.563C322.07 279.785 333.789 292.188 336.817 298.047L339.16 302.344L327.246 324.024C320.801 335.84 315.43 346.582 315.43 347.656C315.43 350.391 319.629 354.492 322.461 354.492C323.731 354.492 325.684 353.809 326.856 353.028C327.93 352.246 337.598 335.645 348.242 316.211C370.41 275.391 373.828 269.824 380.762 262.891C394.531 249.121 414.551 241.406 433.008 242.774C436.133 242.969 449.024 243.164 461.524 243.164ZM465.234 370.703C465.527 371.485 465.332 375.293 464.844 379.199C463.672 387.305 463.086 389.649 462.012 389.649C461.621 389.649 456.543 387.5 450.586 384.766C444.727 382.129 438.867 379.883 437.598 379.883C434.375 379.883 430.664 383.496 430.664 386.719C430.664 391.114 433.106 393.067 445.215 398.438L456.934 403.614L453.906 407.813C452.246 410.156 450.488 412.11 450.098 412.11C449.609 412.11 440.527 406.739 429.688 400.196L410.156 388.379L416.895 381.446C420.508 377.637 423.828 373.535 424.219 372.364C424.902 370.215 425.488 370.117 438.281 369.824C445.606 369.727 454.59 369.434 458.106 369.336C463.281 369.141 464.746 369.434 465.234 370.703Z" fill="#71293B"/>
<path d="M302.051 283.203C297.559 285.059 296.484 291.309 300.098 294.727C303.32 297.754 307.91 297.559 310.449 294.336C313.77 290.137 312.988 285.938 308.496 283.692C305.371 282.031 305.078 282.031 302.051 283.203Z" fill="#71293B"/>
<path d="M191.699 283.203C184.863 286.035 187.305 296.875 194.727 296.875C198.535 296.875 202.148 293.457 202.148 289.844C202.148 284.864 196.484 281.25 191.699 283.203Z" fill="#71293B"/>
</svg>
