<svg width="501" height="500" viewBox="0 0 501 500" fill="none" xmlns="http://www.w3.org/2000/svg">
<g clip-path="url(#clip0_734_1063)">
<path d="M327.872 11.7186C318.693 12.8905 304.728 17.4803 297.013 21.7772C275.724 33.7889 264.005 51.1717 264.005 70.703V77.3436L259.904 71.1913C246.818 51.66 231.29 43.4569 204.435 42.285L192.228 41.6991L186.857 36.8163C167.228 18.9452 136.173 19.4335 118.009 37.9881C115.079 41.0155 113.419 41.9921 111.075 41.9921C106.095 41.9921 94.0832 44.5311 88.3215 46.7772C37.6379 66.8944 9.70825 156.152 2.28638 321.777C1.7981 333.594 1.01685 360.254 0.723877 380.957L0.0402832 418.75L2.57935 421.289C5.70434 424.414 9.41528 424.512 12.4426 421.582C14.6887 419.336 14.6887 419.238 15.2747 381.933C17.3254 270.312 25.1379 196.289 41.0559 140.625C57.2668 83.6913 80.9973 56.6405 114.884 56.6405H120.548L126.603 50.2928C136.368 40.2342 147.501 36.4256 160.001 39.0624C168.302 40.7225 172.599 43.2616 179.435 50.1952L185.489 56.3475L200.529 56.9335C216.544 57.5194 222.208 58.5936 230.607 62.8905C239.982 67.6756 248.38 78.0272 256.779 95.0194C260.489 102.441 260.489 102.734 258.634 103.711C252.384 107.129 247.404 117.187 247.404 126.074C247.404 130.957 249.845 139.062 252.579 143.848C255.021 147.949 263.126 156.25 264.786 156.25C265.275 156.25 266.642 160.058 267.814 164.746C270.157 174.023 276.505 188.379 281.681 195.996C283.341 198.535 287.345 203.613 290.568 207.226C293.693 210.742 296.232 214.551 296.232 215.625C296.232 219.238 283.732 228.223 272.111 233.008C268.986 234.277 257.95 237.305 247.501 239.844C235.099 242.871 227.97 245.019 226.7 246.289C224.747 248.242 224.357 252.051 225.919 254.883C228.068 258.887 231.29 258.789 250.333 254.297C270.743 249.512 279.142 246.582 288.614 241.113C292.13 238.965 295.353 237.305 295.646 237.305C295.939 237.305 296.232 240.137 296.232 243.652C296.232 275.488 307.462 312.5 325.138 339.062C337.15 357.226 340.861 357.226 352.97 339.258C369.767 314.355 379.239 284.082 381.681 247.265C382.071 241.699 382.657 237.305 383.048 237.5C383.341 237.695 386.075 239.258 389.103 241.015L394.669 244.238L397.794 255.566C402.579 272.754 404.825 284.961 404.435 291.113C403.654 301.758 395.841 313.379 374.552 335.156C366.837 343.066 354.142 354.883 346.427 361.426C333.146 372.851 332.364 373.633 332.364 377.051C332.364 382.129 336.954 385.547 341.446 383.887C346.622 381.933 378.068 353.711 391.837 338.574C403.654 325.781 409.806 317.48 414.493 308.008C420.743 295.605 420.743 286.426 414.689 261.914C413.321 256.445 412.443 251.66 412.736 251.269C413.517 250.488 462.54 262.598 466.349 264.551C468.693 265.723 469.864 267.285 471.232 271.484C478.849 294.238 485.685 361.133 485.685 413.574C485.685 425.879 485.392 427.734 483.341 432.129C479.044 441.406 466.642 455.176 447.403 472.07C439.2 479.199 438.028 482.031 441.544 486.133C446.427 491.992 451.7 488.965 472.599 468.262C488.028 452.93 495.157 443.555 498.478 434.082C500.724 427.832 500.919 412.695 499.357 378.906C496.525 318.75 489.982 274.707 481.388 258.105C478.361 252.148 471.915 249.707 438.321 241.797C426.017 238.867 413.712 235.742 410.978 234.863C403.361 232.226 391.446 225.781 386.564 221.484C380.607 216.211 380.704 214.16 387.54 206.933C398.868 194.629 406.095 180.566 411.466 160.644C412.247 157.617 413.419 156.152 416.642 154.199C424.65 149.414 430.021 138.086 430.021 125.879C430.021 114.844 425.431 106.25 417.716 102.93L414.689 101.66L414.2 81.3475C413.712 63.1835 413.419 60.4491 411.466 55.1756C408.048 46.3866 403.849 40.3319 395.353 32.4217C378.654 16.7967 352.286 8.69127 327.872 11.7186ZM356.779 27.9296C373.38 31.9335 389.884 43.9452 396.036 56.4452L399.259 62.8905L399.747 87.6952C400.236 110.742 400.333 112.598 402.091 113.867C403.165 114.648 405.509 115.234 407.267 115.234C412.54 115.234 415.372 118.75 415.372 125.488C415.372 134.863 411.271 141.797 404.435 143.555C399.943 144.824 399.259 145.996 397.208 155.859C393.693 173.242 386.466 187.109 374.845 198.828C353.263 220.508 326.993 221.191 305.021 200.586C292.618 188.965 284.708 174.219 280.607 155.469C278.654 146.582 277.482 144.726 272.696 143.164C266.349 141.015 260.978 130.469 262.443 122.949C263.419 117.773 264.982 116.113 269.864 115.527C272.306 115.234 275.236 114.062 276.505 112.988C278.654 111.035 278.654 110.547 278.654 88.3788C278.654 62.2069 279.239 59.0819 285.978 49.9022C288.419 46.5819 290.763 43.9452 291.154 43.9452C291.642 43.9452 292.521 46.1913 293.107 48.9256C297.208 66.6991 310.392 77.8319 330.314 80.371C342.716 81.9335 378.654 79.785 382.169 77.246C386.271 74.3163 385.978 68.6522 381.681 65.8202C379.435 64.3553 377.384 64.3553 358.732 65.4296C330.509 67.1874 320.939 65.6249 313.614 57.91C309.806 53.9061 306.974 46.8749 306.29 39.746L305.704 33.5936L310.489 31.5428C324.747 25.3905 341.154 24.121 356.779 27.9296ZM316.251 225.586L320.743 227.539L320.255 231.64C319.864 233.984 318.986 243.75 318.204 253.418C317.423 263.086 316.446 272.949 316.056 275.39L315.47 279.785L314.2 273.926C312.15 264.16 310.88 249.805 310.88 236.328C310.88 229.394 311.075 223.633 311.271 223.633C311.466 223.633 313.712 224.512 316.251 225.586ZM367.228 239.551C366.642 254.785 364.298 275.39 362.736 278.027C362.345 278.711 361.075 267.676 359.806 253.418C358.536 239.16 357.657 227.344 357.853 227.148C358.536 226.66 366.056 223.73 366.935 223.73C367.423 223.633 367.618 230.273 367.228 239.551ZM343.107 230.957C343.107 231.152 344.669 248.437 346.525 269.238C348.38 290.039 349.943 308.984 350.138 311.133C350.236 314.453 349.357 316.699 345.06 324.121C342.13 329.004 339.493 333.008 339.103 333.008C338.419 333.008 334.611 327.148 330.021 319.238L327.384 314.648L330.9 274.805C332.853 252.832 334.611 233.887 334.904 232.617C335.294 230.859 335.978 230.469 339.2 230.469C341.349 230.469 343.107 230.664 343.107 230.957Z" fill="#71293B"/>
<path d="M295.939 126.172C295.06 126.855 293.986 128.516 293.4 129.883C290.958 136.621 299.845 143.555 310.783 143.555C317.326 143.555 321.329 141.992 325.822 137.891C332.951 131.152 324.161 120.898 316.447 126.953C313.322 129.395 308.146 129.395 305.021 126.953C302.189 124.805 298.283 124.414 295.939 126.172Z" fill="#71293B"/>
<path d="M351.798 126.855C348.966 129.102 348.771 134.766 351.31 137.598C358.634 145.605 376.505 145.41 382.951 137.207C385.88 133.496 385.685 129.492 382.56 127.051C379.337 124.512 376.603 124.512 372.892 126.953C371.329 128.027 368.693 128.906 367.033 128.906C365.47 128.906 362.833 128.027 361.173 126.953C357.462 124.512 354.728 124.512 351.798 126.855Z" fill="#71293B"/>
<path d="M312.736 173.828C311.857 174.317 310.587 176.074 310.001 177.637C308.439 181.25 310.294 185.059 315.47 189.258C330.607 201.172 350.04 200.586 363.615 187.891C369.474 182.422 370.255 178.223 365.958 174.902C362.247 171.973 359.318 172.363 355.118 176.172C349.552 181.055 345.255 182.91 339.2 183.008C333.048 183.008 328.556 181.152 322.794 176.172C318.888 172.852 315.665 172.07 312.736 173.828Z" fill="#71293B"/>
<path d="M137.931 65.918C120.158 69.4336 103.068 80.4688 92.6185 95.2148C84.0247 107.227 78.4583 123.047 78.4583 135.547V141.211L74.552 142.969C69.1809 145.312 64.2005 151.465 62.8333 157.422C60.0013 169.141 63.6145 182.129 72.013 191.016L76.6028 195.801L72.8919 198.73C64.4934 205.371 61.8567 209.57 61.1731 217.773C60.3919 225.684 63.6145 232.422 70.7434 238.281C77.2864 243.652 77.3841 243.75 78.0677 248.242C78.8489 252.734 81.4856 255.176 85.3919 255.176C95.7435 255.176 94.4739 238.574 83.5364 229.883C77.0911 224.805 75.5286 222.852 75.5286 219.629C75.5286 216.797 80.802 209.57 82.5599 210.156C83.0481 210.352 84.513 212.988 85.7825 216.113C90.5677 228.125 100.138 241.113 109.318 248.145L114.786 252.344L114.103 256.641C113.712 259.082 113.224 261.621 112.931 262.402C112.15 264.355 106.876 266.797 93.595 271.094C78.6536 275.977 64.7864 282.812 62.9309 286.23C61.0755 289.648 62.9309 294.336 66.7395 295.898C69.2786 296.973 70.5481 296.68 79.1419 292.578C84.4153 290.137 94.6692 286.133 101.896 283.691C120.841 277.148 124.943 274.121 127.384 264.648C128.458 260.352 128.947 259.766 130.704 260.254C137.638 262.305 146.329 263.672 152.677 263.672C158.927 263.672 163.322 262.988 175.919 260.059C177.677 259.668 178.068 259.961 178.068 261.914C178.068 263.184 179.24 266.602 180.607 269.336C183.829 275.781 187.247 277.832 204.435 283.691C238.029 295.117 249.943 305.371 255.704 327.637C257.95 336.23 258.536 358.008 257.267 380.859C255.314 413.086 252.872 431.152 249.65 436.23C246.622 440.82 222.892 457.227 204.337 467.578L198.771 470.605L196.232 466.797C193.009 462.012 187.736 458.398 180.411 456.152L174.845 454.395L194.767 439.453C205.704 431.25 215.861 423.242 217.325 421.484C222.013 416.211 223.868 411.133 226.408 396.484C235.294 345.117 234.904 348.047 233.732 340.723C229.435 315.332 204.63 298.438 181.486 305.176C175.04 307.031 164.005 312.305 157.853 316.504C155.607 318.066 153.458 319.336 152.97 319.336C152.579 319.336 150.236 317.969 147.794 316.309C140.861 311.621 130.704 306.738 124.65 305.176C99.1614 298.535 74.1614 316.895 71.9153 344.043C71.427 350 71.5247 350.879 73.5755 353.027C78.6536 358.398 86.2708 354.59 86.2708 346.582C86.2708 340.723 89.9817 332.129 94.7669 327.051C106.486 314.551 121.232 315.723 143.302 331.055C147.404 333.887 151.408 335.938 152.97 335.938C154.435 335.938 158.829 333.691 163.615 330.371C183.146 317.09 196.329 315.039 207.56 323.535C213.126 327.832 216.74 333.496 218.595 340.625C220.06 346.191 219.962 347.266 217.618 361.133C216.251 369.141 215.177 376.074 215.177 376.367C215.177 376.66 213.419 375.684 211.271 374.121C205.802 370.215 199.943 368.848 190.861 369.336L183.146 369.824L181.388 365.918C179.044 360.84 172.404 354.199 166.642 351.465C159.806 348.145 149.064 347.754 141.447 350.684C134.708 353.223 126.31 360.84 124.357 366.309L123.087 369.727L115.079 369.336C109.122 369.043 105.704 369.336 101.993 370.605C86.7591 375.684 77.2864 393.164 81.6809 408.301C84.9036 419.043 86.8567 421.094 118.204 444.531C134.22 456.543 147.99 466.797 148.771 467.383C149.552 467.871 155.997 468.457 162.931 468.75C173.868 469.238 176.212 469.629 179.63 471.582C184.122 474.121 185.392 476.074 186.368 481.641C186.954 485.449 190.665 489.258 193.595 489.258C195.743 489.258 221.72 474.805 234.22 466.699C254.63 453.418 263.517 444.531 265.763 435.352C269.669 419.824 272.111 389.648 272.208 357.91C272.208 334.473 272.111 331.836 270.06 324.414C262.345 295.703 248.771 283.398 210.783 270.508C202.775 267.773 195.353 264.844 194.474 263.867C193.497 262.891 192.423 260.059 192.13 257.52L191.447 252.832L198.966 245.996C203.068 242.188 208.439 236.23 210.783 232.91C216.154 225.391 222.111 212.695 224.454 203.809C225.919 198.34 226.7 196.875 229.435 195.215C247.697 183.984 249.454 151.758 232.267 143.359C227.97 141.211 227.872 141.113 227.872 136.523C227.872 133.887 227.189 128.516 226.408 124.609C218.009 83.8867 178.654 57.8125 137.931 65.918ZM167.716 81.0547C178.947 83.8867 186.173 88.1836 195.158 97.168C207.853 109.766 213.224 122.949 213.224 141.113C213.224 152.148 214.298 154.004 221.525 155.371C224.161 155.859 226.993 156.934 227.872 157.812C229.923 159.766 229.825 171.387 227.775 175.195L226.212 178.027L224.65 173.34C219.083 157.227 209.122 149.805 178.068 138.672C157.462 131.25 148.38 126.66 141.74 120.117C136.759 115.137 136.075 113.965 135.001 108.398C134.318 104.98 132.95 101.367 131.974 100.391C129.728 98.1445 125.236 98.1445 122.306 100.488C120.45 101.953 120.158 103.125 120.255 107.52C120.743 126.27 134.806 138.574 170.255 151.367C190.763 158.691 201.505 164.062 205.802 169.141C212.638 177.051 213.908 187.5 209.708 201.758C205.997 214.746 201.31 222.852 192.228 231.934C173.478 250.684 147.892 254.492 126.017 241.699C109.708 232.129 98.9661 216.309 94.5716 195.312C92.6185 186.133 91.8372 184.863 87.345 183.594C85.2942 183.105 82.9505 181.836 82.0716 180.859C79.0442 177.539 76.5052 170.508 76.5052 165.234C76.5052 158.789 79.3372 155.273 84.6106 155.273C86.4661 155.273 89.0052 154.492 90.2747 153.418C92.4231 151.758 92.6185 150.684 93.2044 138.574C93.6927 127.051 94.181 124.512 96.9153 117.676C100.529 108.301 107.755 98.3398 114.786 92.6758C120.841 87.8906 132.267 82.2266 139.396 80.4688C147.111 78.6133 159.122 78.8086 167.716 81.0547ZM160.294 364.648C166.447 367.871 170.255 374.023 170.255 380.664C170.255 388.867 175.529 391.309 183.341 386.719C196.427 379.297 210.294 386.23 210.49 400.293C210.49 408.301 205.411 414.844 197.599 416.992C195.06 417.676 178.849 417.969 150.431 417.773L107.169 417.48L103.165 414.844C92.4231 407.715 92.8138 391.992 103.947 385.84C108.829 383.105 116.935 383.105 120.939 385.84C129.923 391.895 136.075 389.16 136.075 379.102C136.075 374.121 139.786 368.164 144.376 365.527C148.966 362.988 156.29 362.598 160.294 364.648ZM166.349 442.383C153.361 452.148 153.263 452.148 150.822 450.488C148.185 448.828 129.435 434.863 127.872 433.496C127.286 433.008 138.615 432.617 153.165 432.617H179.337L166.349 442.383Z" fill="#71293B"/>
<path d="M108.829 174.414C104.825 179.492 107.169 184.668 115.079 188.379C123.185 192.187 134.318 190.332 140.47 184.18C143.4 181.152 143.595 177.832 140.861 174.414C138.419 171.289 133.829 170.996 130.216 173.828C127.091 176.269 122.306 176.269 119.181 173.828C115.665 170.996 111.271 171.289 108.829 174.414Z" fill="#71293B"/>
<path d="M165.568 174.121C161.271 178.711 163.81 184.668 171.525 188.379C183.146 194.043 201.31 186.621 198.966 177.246C197.696 172.07 191.154 170.215 186.564 173.828C183.439 176.27 179.337 176.27 175.626 173.828C171.72 171.289 168.107 171.387 165.568 174.121Z" fill="#71293B"/>
<path d="M130.802 215.918C126.798 219.043 127.286 223.926 131.974 228.32C143.595 239.355 162.052 239.453 173.283 228.613C178.849 223.242 179.435 220.019 175.626 216.308C172.404 212.988 169.181 213.281 164.396 217.285C157.267 223.242 148.771 223.633 142.911 218.262C137.638 213.476 134.708 212.89 130.802 215.918Z" fill="#71293B"/>
<path d="M42.423 308.203C34.4152 318.359 31.6809 346.484 34.5129 388.867C36.6613 420.215 39.7863 437.988 44.2785 444.238C51.0168 453.418 77.6769 471.875 103.361 485.059C111.759 489.355 112.345 489.453 115.079 488.184C118.4 486.621 120.06 482.91 119.083 479.199C118.595 477.246 115.568 475.098 104.142 468.75C79.5324 455.176 58.5363 440.43 55.6066 434.668C51.7004 427.148 48.673 394.238 48.673 359.375V331.543L51.8957 322.461C53.5559 317.48 55.0207 312.695 55.0207 311.914C55.0207 311.133 53.9465 309.375 52.5793 308.105C49.3566 304.785 45.0598 304.883 42.423 308.203Z" fill="#71293B"/>
<path d="M335.294 402.637C327.872 406.348 330.607 417.969 338.907 417.969C347.501 417.969 350.138 406.543 342.423 402.539C339.786 401.074 338.321 401.074 335.294 402.637Z" fill="#71293B"/>
<path d="M335.294 441.699C327.872 445.41 330.607 457.031 338.907 457.031C347.501 457.031 350.138 445.605 342.423 441.602C339.786 440.137 338.321 440.137 335.294 441.699Z" fill="#71293B"/>
</g>
<defs>
<clipPath id="clip0_734_1063">
<rect width="500" height="500" fill="white" transform="translate(0.333252)"/>
</clipPath>
</defs>
</svg>
