<svg width="500" height="500" viewBox="0 0 500 500" fill="none" xmlns="http://www.w3.org/2000/svg">
<path d="M31.543 25.5859C31.9336 39.6484 32.4219 44.9219 33.9844 50.293C35.0586 54.0039 35.9375 57.1289 35.8398 57.2266C35.7422 57.3242 32.8125 58.7891 29.2969 60.5469C21.9727 64.2578 5.85938 75 5.85938 76.2695C5.85938 78.125 19.3359 99.2188 24.4141 105.273C30.957 113.086 41.2109 121.094 50 125.293L56.6406 128.418L55.8594 131.836C55.4688 133.691 55.1758 138.77 55.1758 143.066C55.1758 149.609 54.7852 151.367 53.0273 153.613C51.9531 155.078 50.1953 158.203 49.2188 160.547C47.8516 163.867 46.6797 165.039 43.9453 166.016C31.25 170.605 22.4609 183.984 23.7305 197.266C24.4141 204.688 28.0273 212.695 33.1055 217.578L37.1094 221.387L26.3672 321.387C20.5078 376.367 15.4297 423.242 15.1367 425.488L14.5508 429.688H28.0273C40.332 429.688 46.875 428.809 52.9297 426.27C54.4922 425.586 54.6875 426.465 54.6875 435.352V445.215L36.2305 445.508C16.0156 445.801 15.1367 446.094 10.3516 452.539C8.49609 454.98 8.30078 456.641 8.30078 468.75C8.30078 483.496 8.78906 485.059 15.0391 489.648C17.6758 491.699 18.6523 491.699 78.125 491.699C137.598 491.699 138.574 491.699 141.211 489.648C147.461 485.059 147.949 483.496 147.949 468.75C147.949 456.641 147.754 454.98 145.898 452.539C141.113 446.094 140.234 445.801 120.02 445.508L101.562 445.215V410.645V376.074L106.934 372.559C113.086 368.457 123.828 357.129 124.609 353.906C124.902 352.734 123.145 341.504 120.605 329.004C118.164 316.406 116.016 305.566 115.918 304.785C115.82 304.004 118.652 302.441 123.535 300.586C164.16 285.645 199.707 257.422 223.926 220.703C232.031 208.398 241.797 188.574 246.289 175.586C248.047 170.312 249.707 166.016 250 166.016C250.293 166.016 251.953 170.312 253.711 175.586C258.203 188.574 267.969 208.398 276.074 220.703C299.707 256.543 332.422 283.105 372.461 298.926C379.59 301.758 384.18 304.102 384.082 304.883C383.984 305.566 381.836 316.406 379.395 329.004C376.855 341.504 375.098 352.734 375.391 353.906C376.172 357.129 386.914 368.457 393.066 372.559L398.438 376.074V410.645V445.215L379.98 445.508C359.766 445.801 358.887 446.094 354.102 452.539C352.246 454.98 352.051 456.641 352.051 468.75C352.051 483.496 352.539 485.059 358.789 489.648C361.426 491.699 362.402 491.699 421.875 491.699C481.348 491.699 482.324 491.699 484.961 489.648C491.211 485.059 491.699 483.496 491.699 468.75C491.699 456.641 491.504 454.98 489.648 452.539C484.863 446.094 483.984 445.801 463.77 445.508L445.312 445.215V435.352C445.312 426.465 445.508 425.586 447.07 426.27C453.125 428.809 459.668 429.688 471.973 429.688H485.449L484.863 425.488C484.57 423.242 479.492 376.367 473.633 321.387L462.891 221.387L466.895 217.578C473.145 211.523 476.074 204.297 476.074 194.824C476.074 187.695 475.781 186.426 472.559 180.664C468.75 173.73 462.402 168.164 456.152 166.016C453.418 165.137 452.148 164.062 451.367 161.719C449.316 156.055 444.336 149.609 439.746 146.582C435.742 143.945 434.766 142.48 431.641 135.059C416.113 97.2656 388.672 66.3086 353.516 46.582C325 30.5664 296.289 23.4375 260.059 23.4375H245.605L243.262 20.0195C238.77 13.3789 227.344 7.8125 218.164 7.8125C206.055 7.8125 193.75 16.6016 189.453 28.3203C188.379 31.0547 187.012 32.3242 181.934 34.7656L175.781 37.793L169.531 34.7656C164.355 32.2266 163.184 31.1523 162.109 28.125C159.961 21.875 154.297 15.5273 147.461 11.8164C141.602 8.59375 140.527 8.30078 132.812 8.30078C125.781 8.30078 123.828 8.69141 119.531 10.9375C114.258 13.6719 110.059 17.2852 106.836 21.875L104.785 24.707L98.1445 20.6055C82.8125 11.4258 67.9688 7.8125 45.1172 7.8125H31.0547L31.543 25.5859ZM69.8242 25.3906C75.3906 26.9531 83.7891 30.2734 88.6719 33.0078L92.8711 35.3516L87.8906 40.2344C85.2539 42.8711 83.0078 45.4102 83.0078 45.8984C83.0078 46.3867 80.0781 46.9727 76.4648 47.3633C70.0195 48.0469 58.7891 49.9023 53.5156 51.2695C51.0742 51.8555 50.7812 51.6602 49.3164 46.6797C48.4375 43.8477 47.4609 37.4023 47.168 32.3242L46.582 23.1445L56.25 23.7305C61.5234 24.1211 67.6758 24.8047 69.8242 25.3906ZM141.406 26.0742C146.094 29.5898 147.754 32.8125 148.242 39.1602L148.73 45.2148L145.898 43.2617C137.988 37.793 127.734 37.6953 119.922 43.1641L117.188 45.0195V40.625C117.188 33.1055 120.41 27.5391 126.465 24.8047C130.371 22.9492 138.086 23.6328 141.406 26.0742ZM227.344 26.0742C232.031 29.5898 233.691 32.8125 234.18 39.1602L234.668 45.2148L231.836 43.2617C223.926 37.793 213.672 37.6953 205.859 43.1641L203.125 45.0195V40.625C203.125 33.1055 206.348 27.5391 212.402 24.8047C216.309 22.9492 224.023 23.6328 227.344 26.0742ZM286.426 40.5273C341.211 47.6562 387.5 80.5664 412.109 129.785C417.48 140.43 417.773 141.602 415.332 141.602C414.355 141.602 411.23 142.676 408.301 144.043C405.371 145.41 402.93 146.387 402.832 146.289C402.734 146.094 400.586 141.895 398.047 136.816C395.605 131.836 390.82 123.73 387.402 118.75C379.883 107.617 362.695 90.4297 351.074 82.1289C341.113 75.1953 322.559 65.8203 311.23 62.1094C302.734 59.375 284.863 55.6641 279.785 55.6641C274.902 55.6641 271.777 54.1992 271.094 51.4648C270.801 50.0977 269.043 46.7773 267.188 44.043L263.77 39.0625H269.531C272.754 39.0625 280.273 39.7461 286.426 40.5273ZM113.477 49.5117C112.5 51.0742 111.133 53.7109 110.547 55.5664C108.301 62.0117 109.473 69.6289 113.477 75.3906L115.332 78.125H110.84C105.078 78.125 100.684 76.2695 97.3633 72.3633C92.6758 66.7969 92.6758 58.2031 97.3633 52.6367C100.684 48.7305 104.688 46.9727 110.645 46.875H115.332L113.477 49.5117ZM162.793 48.5352C166.016 50 166.113 50.293 165.43 53.6133C164.355 58.2031 164.355 66.9922 165.332 70.9961C166.016 73.6328 165.82 74.1211 164.16 74.707C160.742 75.7812 153.711 83.5938 151.27 89.0625C149.121 93.8477 148.438 94.5312 141.406 98.0469C135.156 101.172 133.203 101.758 130.176 101.27C122.656 100 117.969 94.4336 117.383 85.8398L116.895 79.7852L119.727 81.7383C129.297 88.3789 140.43 87.207 148.926 78.6133C156.836 70.8008 158.301 62.0117 153.516 52.3438L150.684 46.875H155.078C157.422 46.875 160.938 47.5586 162.793 48.5352ZM199.414 49.5117C198.438 51.0742 197.07 53.7109 196.484 55.5664C194.238 62.0117 195.41 69.6289 199.414 75.3906L201.27 78.125H196.777C191.016 78.125 186.621 76.2695 183.301 72.3633C178.613 66.7969 178.613 58.2031 183.301 52.6367C186.621 48.7305 190.625 46.9727 196.582 46.875H201.27L199.414 49.5117ZM250.684 49.4141C255.762 53.2227 257.324 56.3477 257.324 62.5C257.324 71.7773 252.051 77.2461 242.285 77.9297L236.523 78.3203L239.355 72.7539C241.309 68.8477 242.188 65.625 242.188 62.5C242.188 59.375 241.309 56.1523 239.355 52.2461L236.523 46.6797L242.285 47.0703C245.996 47.3633 249.023 48.1445 250.684 49.4141ZM138.184 57.1289C143.066 61.9141 139.648 70.3125 132.812 70.3125C128.809 70.3125 125 66.5039 125 62.5C125 58.4961 128.809 54.6875 132.812 54.6875C134.668 54.6875 136.719 55.5664 138.184 57.1289ZM224.121 57.1289C229.004 61.9141 225.586 70.3125 218.75 70.3125C214.746 70.3125 210.938 66.5039 210.938 62.5C210.938 58.4961 214.746 54.6875 218.75 54.6875C220.605 54.6875 222.656 55.5664 224.121 57.1289ZM78.125 64.2578C78.125 67.5781 81.0547 75.8789 83.4961 79.4922C84.7656 81.4453 85.5469 83.0078 85.1562 83.0078C84.7656 83.0078 78.125 81.9336 70.3125 80.5664C62.5 79.1992 56.0547 78.125 56.0547 78.125C55.6641 78.125 53.6133 93.0664 54.0039 93.3594C54.3945 93.75 81.25 98.6328 83.2031 98.6328C83.5938 98.6328 82.7148 101.172 81.25 104.199C78.9062 109.375 78.0273 110.156 72.4609 112.891L66.3086 115.918L57.6172 111.621C47.0703 106.348 37.207 97.6562 30.6641 87.6953C25.293 79.6875 24.9023 80.4688 37.1094 74.3164C48.1445 68.75 59.2773 65.332 74.2188 63.0859C75.5859 62.8906 76.9531 62.6953 77.4414 62.5977C77.832 62.5977 78.125 63.2812 78.125 64.2578ZM276.27 140.625C287.5 199.805 327.93 248.633 383.594 270.02C389.746 272.461 390.723 273.145 390.234 274.805C390.039 275.977 389.355 279.395 388.672 282.422L387.598 287.988L382.031 286.035C357.227 276.953 332.617 261.23 313.477 242.09C285.449 214.062 266.992 178.125 260.156 138.184C258.301 127.637 257.031 88.8672 258.496 88.8672C260.645 88.8672 267.871 80.5664 270.312 75.3906L272.949 69.8242L273.535 99.6094C274.023 124.316 274.512 131.348 276.27 140.625ZM300.781 75.3906C304.785 76.4648 310.84 78.418 314.062 79.7852L320.02 82.1289L320.605 104.297C320.996 123.438 321.484 127.832 323.535 136.719C330.371 165.137 341.992 184.18 366.699 207.129C369.922 210.156 374.414 214.551 376.66 216.992C378.906 219.434 383.008 222.363 385.938 223.73C390.625 225.781 391.406 226.562 394.238 232.52L397.461 238.965L395.703 247.656C394.043 255.859 393.75 256.348 391.504 256.152C386.914 255.664 361.816 242.285 352.539 235.352C320.02 210.938 299.121 177.246 291.406 136.719C290.332 130.859 289.746 120.215 289.355 100.391L288.867 72.3633L291.113 72.9492C292.383 73.2422 296.777 74.3164 300.781 75.3906ZM211.816 84.7656C217.383 86.7188 222.852 86.1328 229.004 83.1055L234.57 80.2734L234.18 86.0352C233.496 95.8008 228.027 101.074 218.75 101.074C209.375 101.074 204.004 95.8008 203.32 85.8398L202.832 79.7852L205.664 81.7383C207.227 82.8125 209.961 84.1797 211.816 84.7656ZM181.543 90.0391C186.816 92.5781 188.477 93.9453 189.355 96.2891C191.211 101.465 196.191 108.008 200.293 110.938C202.539 112.5 207.227 114.648 210.84 115.82C216.797 117.676 217.383 118.164 218.164 121.289C220.703 131.445 213.086 140.625 201.855 140.625H197.559L200.391 135.156C205.176 125.488 203.711 116.699 195.801 108.887C187.305 100.391 176.172 99.1211 166.797 105.664L164.062 107.52V103.125C164.062 100.781 164.551 97.5586 165.039 96.0938C166.113 93.2617 172.266 86.9141 173.926 86.9141C174.512 86.9141 177.93 88.3789 181.543 90.0391ZM356.348 106.836C370.996 120.898 381.25 135.547 388.184 152.539C392.773 163.574 392.676 164.062 386.133 166.895C379.688 169.727 372.852 176.367 370.41 182.227C369.434 184.57 368.359 186.523 367.969 186.523C366.699 186.523 356.348 173.047 351.562 165.039C341.016 147.559 337.012 132.422 336.23 108.008L335.645 90.5273L341.895 94.8242C345.312 97.0703 351.758 102.539 356.348 106.836ZM110.449 107.324C113.281 110.156 117.285 112.988 120.508 114.355C126.074 116.602 126.367 116.992 125.391 120.801C124.805 122.949 124.707 123.047 122.168 121.191C114.551 115.918 104.199 115.918 96.4844 121.289L93.75 123.145V118.652C93.75 116.113 94.4336 112.598 95.3125 110.742C97.0703 106.934 101.953 102.539 104.199 102.539C105.078 102.539 107.812 104.688 110.449 107.324ZM241.211 126.465C236.719 170.703 217.871 210.547 186.621 241.895C167.578 261.133 142.969 276.953 117.969 286.035L112.402 287.988L111.328 282.422C110.645 279.395 109.961 275.977 109.766 274.805C109.277 273.145 110.254 272.461 116.406 270.02C165.625 250.977 204.785 208.594 219.238 158.496C221.094 152.246 222.461 149.512 225.195 146.68C230.762 141.016 233.789 133.594 233.887 125.488C233.887 121.68 233.594 117.578 233.203 116.211C232.715 114.062 233.203 113.379 237.109 110.742L241.699 107.715L241.992 111.719C242.188 113.965 241.895 120.508 241.211 126.465ZM160.352 112.012C159.375 113.574 158.008 116.211 157.422 118.066C155.176 124.512 156.348 132.129 160.352 137.891L162.207 140.625H157.715C151.953 140.625 147.559 138.77 144.238 134.863C139.551 129.297 139.551 120.703 144.238 115.137C147.559 111.23 151.562 109.473 157.52 109.375H162.207L160.352 112.012ZM185.059 119.629C189.941 124.414 186.523 132.812 179.688 132.812C175.684 132.812 171.875 129.004 171.875 125C171.875 120.996 175.684 117.188 179.688 117.188C181.543 117.188 183.594 118.066 185.059 119.629ZM90.0391 127.637C87.8906 130.859 85.9375 136.133 85.9375 139.062C85.9375 141.016 85.4492 141.113 78.125 141.113C69.5312 141.113 69.2383 140.82 71.3867 135.059C73.7305 128.711 79.4922 125.098 87.207 125H91.8945L90.0391 127.637ZM114.746 135.254C119.629 140.039 116.211 148.438 109.375 148.438C105.371 148.438 101.562 144.629 101.562 140.625C101.562 136.621 105.371 132.812 109.375 132.812C111.23 132.812 113.281 133.691 114.746 135.254ZM172.754 147.266C178.32 149.219 183.789 148.633 189.941 145.605L195.508 142.773L195.117 148.535C194.434 158.301 188.965 163.574 179.688 163.574C170.312 163.574 164.941 158.301 164.258 148.34L163.77 142.285L166.602 144.238C168.164 145.312 170.898 146.68 172.754 147.266ZM141.016 152.441C142.383 153.711 136.035 156.25 131.543 156.25H127.246L129.785 151.074L132.324 145.801L136.23 148.73C138.379 150.391 140.527 152.051 141.016 152.441ZM86.7188 158.887C91.4062 162.402 93.0664 165.625 93.5547 171.973L94.043 178.027L91.2109 176.074C83.3008 170.605 73.0469 170.508 65.2344 175.977L62.5 177.832V173.438C62.5 165.918 65.7227 160.352 71.7773 157.617C75.6836 155.762 83.3984 156.445 86.7188 158.887ZM430.469 158.887C435.156 162.402 436.816 165.625 437.305 171.973L437.793 178.027L434.961 176.074C427.051 170.605 416.797 170.508 408.984 175.977L406.25 177.832V173.438C406.25 165.918 409.473 160.352 415.527 157.617C419.434 155.762 427.148 156.445 430.469 158.887ZM124.512 167.578C123.828 171.582 122.461 172.559 120.215 170.508C119.336 169.727 116.211 167.969 113.281 166.602C108.301 164.355 108.105 164.16 110.938 164.16C112.598 164.062 116.309 162.891 119.238 161.328L124.512 158.691L124.805 161.523C125 163.086 124.902 165.82 124.512 167.578ZM156.934 169.531C163.281 176.074 170.605 179.199 179.688 179.199C185.156 179.199 188.184 178.613 191.699 177.051C194.238 175.879 196.289 175.195 196.289 175.488C196.289 175.879 194.434 179.395 192.285 183.496C180.273 205.273 164.551 223.145 144.434 237.5C135.84 243.652 112.5 255.762 108.496 256.152C106.25 256.348 105.957 255.859 104.297 247.754L102.539 239.062L105.664 232.52C108.496 226.562 109.277 225.781 113.77 223.828C121.094 220.605 125.195 216.797 129.004 209.766C132.031 204.102 132.324 202.93 132.324 194.824C132.422 186.719 132.617 185.645 135.547 180.664C137.305 177.734 138.965 174.414 139.258 173.34C139.648 171.777 146.875 167.285 152.246 165.234C152.539 165.137 154.59 167.09 156.934 169.531ZM58.7891 182.324C53.418 190.137 53.418 200.488 58.7891 208.203L60.6445 210.938H56.1523C50.3906 210.938 45.9961 209.082 42.6758 205.176C37.9883 199.609 37.9883 191.016 42.6758 185.449C45.9961 181.543 50 179.785 55.957 179.688H60.6445L58.7891 182.324ZM110.059 182.227C115.137 186.035 116.699 189.16 116.699 195.312C116.699 204.59 111.426 210.059 101.66 210.742L95.8984 211.133L98.7305 205.566C100.684 201.66 101.562 198.438 101.562 195.312C101.562 192.188 100.684 188.965 98.7305 185.059L95.8984 179.492L101.66 179.883C105.371 180.176 108.398 180.957 110.059 182.227ZM402.539 182.324C401.562 183.887 400.195 186.523 399.609 188.379C397.363 194.824 398.535 202.441 402.539 208.203L404.395 210.938H399.902C394.141 210.938 389.746 209.082 386.426 205.176C381.738 199.609 381.738 191.016 386.426 185.449C389.746 181.543 393.75 179.785 399.707 179.688H404.395L402.539 182.324ZM453.809 182.227C458.887 186.035 460.449 189.16 460.449 195.312C460.449 204.59 455.176 210.059 445.41 210.742L439.648 211.133L442.48 205.566C444.434 201.66 445.312 198.438 445.312 195.312C445.312 192.188 444.434 188.965 442.48 185.059L439.648 179.492L445.41 179.883C449.121 180.176 452.148 180.957 453.809 182.227ZM83.4961 189.941C88.3789 194.727 84.9609 203.125 78.125 203.125C74.1211 203.125 70.3125 199.316 70.3125 195.312C70.3125 191.309 74.1211 187.5 78.125 187.5C79.9805 187.5 82.0312 188.379 83.4961 189.941ZM427.246 189.941C428.809 191.406 429.688 193.457 429.688 195.312C429.688 197.168 428.809 199.219 427.246 200.684C425.781 202.246 423.73 203.125 421.875 203.125C420.02 203.125 417.969 202.246 416.504 200.684C414.941 199.219 414.062 197.168 414.062 195.312C414.062 193.457 414.941 191.406 416.504 189.941C417.969 188.379 420.02 187.5 421.875 187.5C423.73 187.5 425.781 188.379 427.246 189.941ZM71.1914 217.578C76.7578 219.531 82.2266 218.945 88.3789 215.918L93.9453 213.086L93.5547 218.848C92.8711 228.613 87.4023 233.887 78.125 233.887C68.75 233.887 63.3789 228.613 62.6953 218.652L62.207 212.598L65.0391 214.551C66.6016 215.625 69.3359 216.992 71.1914 217.578ZM414.941 217.578C420.508 219.531 425.977 218.945 432.129 215.918L437.695 213.086L437.305 218.848C436.621 228.613 431.152 233.887 421.875 233.887C412.5 233.887 407.129 228.613 406.445 218.652L405.957 212.598L408.789 214.551C410.352 215.625 413.086 216.992 414.941 217.578ZM61.6211 245.117C62.1094 245.117 62.5 272.949 62.5 318.164C62.5 401.758 62.793 398.242 54.6875 406.25C49.707 411.328 43.0664 414.062 35.8398 414.062H31.9336L32.4219 410.352C32.7148 408.398 37.0117 368.262 42.0898 321.094L51.2695 235.547L55.957 240.332C58.4961 242.969 61.0352 245.117 61.6211 245.117ZM458.594 326.855C463.672 374.219 467.773 413.184 467.773 413.477C467.773 414.648 460.156 414.062 455.176 412.5C451.367 411.426 448.633 409.668 445.312 406.25C437.207 398.242 437.5 401.66 437.5 318.457V245.605L440.43 243.652C442.09 242.578 444.629 240.137 446.094 238.281L448.73 234.863L449.023 237.793C449.219 239.355 453.516 279.492 458.594 326.855ZM98.6328 298.34C104.004 325.195 108.398 347.949 108.398 348.926C108.398 353.711 92.6758 364.258 82.8125 366.113L78.125 366.895V308.691V250.391L83.3008 249.414C86.0352 248.926 88.4766 248.73 88.5742 249.023C88.7695 249.316 93.2617 271.484 98.6328 298.34ZM421.875 308.691V366.992L415.82 365.625C412.5 364.844 407.617 362.988 404.98 361.523C399.023 358.301 391.602 351.27 391.602 348.926C391.602 347.949 395.996 325 401.465 297.852L411.328 248.535L416.602 249.414L421.875 250.391V308.691ZM85.9375 413.574V445.312H78.125H70.3125V429.199C70.3125 413.379 70.3125 413.086 73.1445 407.52C76.5625 400.781 78.0273 394.922 78.125 387.988C78.125 382.715 78.7109 382.031 83.3008 381.934L85.9375 381.836V413.574ZM420.312 382.422C421.484 382.812 421.875 384.375 421.875 388.086C421.973 394.922 423.438 400.781 426.855 407.52C429.688 413.086 429.688 413.379 429.688 429.199V445.312H421.875H414.062V413.574V381.836H416.406C417.676 381.836 419.434 382.129 420.312 382.422ZM132.812 468.75V476.562H78.125H23.4375V468.75V460.938H78.125H132.812V468.75ZM476.562 468.75V476.562H421.875H367.188V468.75V460.938H421.875H476.562V468.75Z" fill="#71293B"/>
</svg>
