<svg width="501" height="500" viewBox="0 0 501 500" fill="none" xmlns="http://www.w3.org/2000/svg">
<path d="M285.237 1.46505C267.952 4.59005 254.28 15.0393 250.667 27.8322L249.397 32.2268H242.464C230.842 32.2268 221.272 35.7424 212.385 43.0666C207.796 46.8752 207.698 46.8752 203.303 45.801C194.319 43.5549 183.87 46.4846 176.253 53.5158C163.069 65.6252 163.069 86.133 176.057 99.0236C180.256 103.125 189.729 108.496 195.198 109.863L197.737 110.547L198.128 142.871C198.518 173.242 198.714 175.781 200.862 182.617C203.694 192.09 203.694 194.531 200.374 202.149C198.128 207.422 197.542 210.254 197.151 218.848C196.76 228.418 196.956 229.688 199.202 234.668C201.839 240.528 207.991 247.754 213.85 252.051L217.464 254.688L210.139 258.692C199.885 264.356 178.694 278.711 167.659 287.5C157.6 295.508 137.092 314.551 126.155 325.977C120.393 332.031 119.417 333.594 119.417 336.621C119.417 339.063 120.1 340.625 121.663 341.895C126.35 345.703 127.913 344.727 144.124 328.809C166.682 306.543 179.573 295.801 199.397 282.52C209.358 275.879 230.549 263.867 233.772 263.086C235.042 262.695 239.631 263.184 244.026 264.063C261.897 267.578 272.249 265.625 278.108 257.52C287.092 245.117 282.112 229.883 266.682 222.363C264.339 221.289 262.385 220.02 262.385 219.727C262.385 219.336 264.827 217.09 267.756 214.746C270.784 212.403 275.569 207.715 278.401 204.395L283.674 198.34L290.315 203.125C298.421 208.985 308.089 220.508 320.881 239.258C351.839 284.766 382.796 351.172 406.917 423.828C413.655 444.141 421.956 471.68 421.37 472.168C420.296 473.047 406.917 476.856 399.104 478.516C389.046 480.664 386.409 482.52 386.409 487.207C386.409 488.77 387.385 490.82 388.85 492.188C390.901 494.141 391.878 494.336 396.467 493.848C405.354 492.774 420.491 488.477 427.327 485.156C432.21 482.715 434.26 481.055 435.725 478.32L437.581 474.805L433.87 461.231C431.819 453.809 425.569 434.18 420.1 417.481C398.03 350.977 370.589 290.235 341.292 243.555C336.604 235.938 332.698 229.492 332.698 229.102C332.698 228.809 334.163 228.516 335.921 228.516C340.217 228.516 348.225 224.61 353.108 220.117C355.354 218.164 361.214 211.719 365.999 205.86C370.881 200.098 375.178 195.313 375.569 195.313C375.862 195.313 380.061 199.219 384.846 204.004L393.44 212.598L392.171 252.051C390.413 304.688 390.315 301.563 393.147 303.809C396.174 306.25 399.397 306.153 402.522 303.418C404.964 301.27 405.061 300.977 405.94 282.227C406.428 271.778 406.917 257.227 406.917 249.903C406.917 242.578 407.21 233.985 407.503 230.664L408.186 224.805L412.092 226.172C421.956 229.688 432.991 226.953 440.803 219.238C445.979 213.965 448.909 207.324 448.909 200.586C448.909 196.192 439.143 158.106 434.358 143.653C429.964 130.567 425.081 120.117 421.174 115.528C418.635 112.5 414.339 110.254 391.194 99.3166C375.471 91.8947 365.217 85.4494 361.604 80.7619C357.893 75.8791 354.573 65.4299 350.178 43.9455C348.03 33.4963 345.393 23.0471 344.319 20.801C341.682 15.4299 333.87 8.20333 327.424 5.3713C315.999 0.293171 299.788 -1.17167 285.237 1.46505ZM316.682 16.9924C328.401 20.6057 331.721 25.0002 334.651 40.7229C335.823 47.0705 337.874 57.0315 339.339 62.8908L341.878 73.633L334.065 80.8596C323.909 90.5275 312.581 98.8283 304.964 102.539C301.546 104.102 298.518 105.469 298.225 105.469C297.932 105.469 297.542 96.2893 297.346 85.1565L297.053 64.844L293.342 57.4221C288.753 48.0471 281.917 41.6018 271.76 37.0119C267.659 35.1565 264.339 33.2033 264.339 32.6174C264.339 31.2502 269.026 24.3166 271.077 22.6565C274.495 20.0197 280.452 17.383 286.214 16.0158C293.635 14.3557 309.846 14.844 316.682 16.9924ZM261.799 48.8283C265.315 49.9025 270.003 52.2463 272.346 54.1018C276.155 57.0315 276.546 57.6174 276.448 61.6213C276.35 72.1682 266.682 84.5705 253.499 91.1135C243.44 96.094 236.311 97.7541 223.518 98.34L212.385 98.926L212.776 83.8869C213.069 70.6057 213.362 68.2619 215.413 63.6721C218.342 57.2268 225.764 50.2932 232.014 48.4377C238.948 46.2893 254.085 46.4846 261.799 48.8283ZM200.276 60.3518C200.471 60.7424 200.081 63.4768 199.299 66.4065C198.518 69.5315 197.932 76.465 197.932 83.2033C197.932 90.5275 197.542 94.7267 196.956 94.7267C194.612 94.7267 188.264 90.7229 185.432 87.5002C177.62 78.6135 180.061 66.1135 190.51 61.426C194.612 59.5705 199.397 58.9846 200.276 60.3518ZM281.428 124.903C280.647 126.465 278.499 128.613 276.741 129.785C272.639 132.227 263.264 134.766 257.893 134.766C252.229 134.766 250.667 135.547 249.202 138.965C247.737 142.481 248.909 146.973 251.643 148.438C252.62 149.024 256.331 149.414 259.846 149.414C268.245 149.414 280.354 151.172 285.139 153.028C287.288 153.906 297.639 160.938 308.089 168.75C318.538 176.465 328.206 183.301 329.475 183.887C331.038 184.57 332.405 184.57 334.163 183.789C335.53 183.203 345.198 174.903 355.745 165.332C366.194 155.762 375.667 147.656 376.643 147.266C379.28 146.289 384.26 148.242 385.042 150.586C386.897 156.445 383.674 161.621 360.725 189.258C343.342 210.352 339.436 213.867 333.284 213.867C328.499 213.867 329.378 214.453 304.378 195.508C290.803 185.254 283.87 180.664 282.112 180.664C280.354 180.664 278.401 182.031 275.667 185.254C266.292 196.094 254.768 206.934 250.081 209.278L245.1 211.817L237.385 207.52C228.694 202.637 221.76 195.801 218.538 189.063C213.753 178.711 213.264 175.098 212.776 143.457L212.385 113.574L224.006 112.988C245.491 112.012 264.046 104.785 276.057 92.7736L282.405 86.426L282.698 104.297C282.893 118.555 282.6 122.656 281.428 124.903ZM345.198 104.688C339.436 116.309 330.452 130.86 324.983 137.695L322.932 140.137V124.512V108.887L328.401 104.981C331.331 102.93 336.897 98.2424 340.803 94.6291C347.737 88.1838 347.835 88.0861 349.788 89.9416C351.643 91.6994 351.546 91.8947 345.198 104.688ZM370.589 105.371C374.202 107.422 384.553 112.5 393.538 116.699C408.967 123.828 410.042 124.512 412.483 128.613C415.12 133.203 420.979 149.219 424.299 160.938L426.35 168.164L421.76 163.965C419.221 161.719 411.311 154.395 404.182 147.656C396.956 141.016 389.534 134.863 387.581 134.082C382.405 131.836 374.006 132.031 369.612 134.375C367.659 135.352 358.479 143.067 349.299 151.367C340.022 159.668 332.112 166.699 331.624 166.797C331.038 166.992 329.182 166.016 327.327 164.551L323.909 162.012L330.647 153.906C340.022 142.774 350.764 126.465 357.6 112.988C360.823 106.641 363.557 101.563 363.753 101.563C363.948 101.563 367.073 103.223 370.589 105.371ZM308.284 133.789V150.391L301.741 145.899C298.03 143.36 293.928 140.918 292.464 140.43C290.901 139.844 289.729 139.258 289.729 139.063C289.729 138.867 291.096 136.817 292.659 134.57C294.319 132.227 296.077 128.125 296.76 125.391C297.932 120.606 298.03 120.41 302.815 118.945C305.549 118.067 307.893 117.383 308.089 117.285C308.186 117.285 308.284 124.61 308.284 133.789ZM402.717 166.602C404.573 171.387 397.542 181.348 390.803 183.594C384.26 185.742 383.87 184.278 389.339 177.149C392.073 173.633 395.198 168.945 396.272 166.895C397.932 163.477 398.421 163.184 400.178 164.063C401.253 164.649 402.424 165.82 402.717 166.602ZM424.788 187.403C429.475 192.188 433.479 197.266 433.87 198.731C435.53 205.371 428.792 212.891 421.077 212.891C416.585 212.891 415.022 211.914 404.671 202.735L398.128 196.875L402.327 194.238C406.917 191.406 412.092 185.742 414.046 181.348C414.631 179.883 415.51 178.711 415.803 178.711C416.096 178.711 420.198 182.617 424.788 187.403ZM229.085 219.629C232.307 221.387 235.042 222.949 235.042 223.047C235.042 223.242 234.163 225.391 233.089 227.735C232.014 230.176 230.549 234.473 229.866 237.403C229.085 240.235 228.01 242.774 227.522 242.871C226.057 243.36 218.635 237.5 215.12 233.106C212.19 229.492 212.092 228.906 212.092 220.41C212.092 207.422 212.483 206.836 218.342 212.11C220.979 214.453 225.764 217.871 229.085 219.629ZM257.991 234.668C267.171 239.453 269.221 242.285 267.366 246.875C266.682 248.535 265.12 250.195 263.948 250.586C261.214 251.465 254.378 251.172 247.835 249.903L242.659 248.828L243.245 244.531C243.928 239.16 247.542 230.469 249.104 230.469C249.69 230.567 253.694 232.422 257.991 234.668Z" fill="#71293B"/>
<path d="M100.471 356.152C97.151 357.422 71.7604 394.043 60.4323 413.867C53.0104 426.758 51.7409 431.152 53.3034 437.207C59.1628 458.984 102.815 472.559 177.034 475.586L199.983 476.465L208.186 480.371C226.253 489.063 247.249 494.727 271.174 497.559C288.46 499.609 328.108 500.488 347.835 499.219C362.874 498.242 363.46 498.145 365.608 495.606C366.878 494.238 367.854 492.188 367.854 491.211C367.854 488.086 363.655 484.082 360.432 484.082C358.87 484.082 345.784 484.473 331.233 484.863C284.163 486.231 252.522 482.324 225.96 472.07C215.706 468.164 204.378 462.207 181.331 448.731C142.464 426.074 110.921 413.672 88.362 412.402C83.0885 412.109 78.7917 411.621 78.7917 411.426C78.7917 410.547 95.5885 386.133 103.01 376.172C109.553 367.481 111.311 364.453 111.214 362.012C111.116 357.031 105.647 354.102 100.471 356.152ZM104.182 429.688C120.198 434.18 149.592 447.07 166.194 456.836C174.202 461.621 174.788 461.523 151.546 459.473C114.924 456.25 87.8737 449.707 74.2995 440.82C66.194 435.449 65.0221 430.957 71.1745 428.125C75.7643 426.074 94.5143 426.856 104.182 429.688Z" fill="#71293B"/>
</svg>
