<svg width="500" height="500" viewBox="0 0 500 500" fill="none" xmlns="http://www.w3.org/2000/svg">
<path d="M175.293 44.4336C122.754 54.1016 72.6563 100 46.3868 162.598C16.0157 234.863 25 322.656 66.8946 364.648C76.0743 373.73 85.2539 379.883 98.5352 385.84C117.09 394.043 126.27 396.387 144.043 397.168C163.965 398.145 182.91 395.02 200.586 387.988L209.18 384.57L212.207 388.379C218.164 395.801 233.106 410.449 241.699 417.48C264.648 436.035 287.695 447.754 313.477 453.809C327.734 457.129 351.953 458.008 366.309 455.566C386.035 452.246 406.055 445.02 419.629 436.328C447.754 418.066 469.531 378.32 471.387 341.797C472.363 323.242 468.359 296.973 461.426 275.879C443.359 221.289 394.629 164.941 343.555 139.648C336.914 136.426 327.051 132.129 321.484 130.078L311.426 126.465L308.984 120.605C307.617 117.383 306.152 113.379 305.664 111.816C301.563 96.3867 284.57 74.6093 267.188 62.5976C257.617 56.0547 241.602 48.3398 231.934 45.7031C225.391 43.9453 220.898 43.5547 203.613 43.3594C188.77 43.1641 180.957 43.457 175.293 44.4336ZM228.711 55.5664C236.426 57.6172 247.852 62.5 253.906 66.3086C257.324 68.5547 257.324 68.5547 254.492 67.8711C212.5 58.4961 168.164 83.9843 132.813 137.891C111.914 169.727 97.8516 205.859 92.1875 242.383C89.7461 257.715 89.7461 287.598 92.1875 302.148C98.3399 339.648 114.16 369.043 136.816 384.961C139.16 386.621 139.16 386.719 134.766 386.133C113.477 383.301 93.9454 373.34 78.9063 357.617C61.9141 339.844 52.2461 321.191 46.6797 295.605C44.8243 287.012 44.5313 282.715 44.5313 264.648C44.5313 205.469 61.1329 155.176 94.2383 113.77C117.969 84.1797 142.773 65.8203 169.434 58.2031C189.648 52.4414 212.695 51.3672 228.711 55.5664ZM256.25 79.1015C271.875 83.9843 286.328 97.1679 295.117 114.746C306.25 136.816 311.231 165.332 309.473 197.266C307.227 236.719 289.844 285.84 266.504 318.75L260.352 327.344L257.52 324.121C255.957 322.266 250.977 315.234 246.484 308.398L238.184 296.094L242.09 288.867C265.82 245.215 276.074 183.203 266.992 137.695C263.477 119.922 253.613 96.9726 244.141 84.4726C237.109 75.1953 237.109 75.7812 244.043 76.5625C247.461 76.9531 252.93 78.125 256.25 79.1015ZM222.363 80.2734C228.613 87.1093 245.898 118.359 244.922 121.094C244.727 121.68 240.137 123.633 234.668 125.488C222.461 129.59 215.82 132.91 204.395 140.527C193.457 147.852 184.766 156.934 175.781 170.605C158.789 196.387 152.93 215.723 152.93 245.605C152.93 273.437 158.789 296.875 173.438 328.027C176.367 334.18 178.613 339.258 178.516 339.355C178.32 339.551 174.707 342.187 170.41 345.215C155.371 356.055 142.09 360.547 129.688 358.984C123.438 358.203 122.461 357.031 115.82 343.945C105.273 322.949 100.586 301.172 100.586 272.461C100.586 248.437 104.004 228.125 111.816 204.59C132.129 143.75 172.07 94.7265 213.379 79.9804C219.727 77.7343 220.02 77.7343 222.363 80.2734ZM252.344 143.262C253.125 146.973 254.102 151.66 254.395 153.809C254.785 155.957 255.273 158.398 255.469 159.277C255.859 160.645 254.199 160.84 242.481 160.937C235.059 160.937 226.856 161.426 224.121 161.914C221.484 162.5 219.141 162.793 218.945 162.598C218.262 162.012 228.516 150.195 232.91 146.582C237.695 142.578 247.656 136.816 249.707 136.719C250.293 136.719 251.465 139.648 252.344 143.262ZM334.961 146.68C345.606 151.562 361.328 161.23 370.996 168.652C381.348 176.758 404.492 199.805 413.477 210.937C436.523 239.746 450.684 268.945 457.715 302.246C460.059 313.477 460.352 317.09 460.352 333.984C460.449 349.316 460.156 354.297 458.691 359.375C455.957 369.336 451.66 377.441 446.094 383.398C441.602 388.184 433.691 394.531 432.324 394.531C432.031 394.531 432.813 391.797 433.887 388.379C435.742 383.008 436.035 380.273 435.938 364.258C435.938 348.535 435.547 344.531 433.301 333.789C426.27 300.391 412.109 270.703 390.039 243.164C375 224.414 351.27 203.027 330.273 189.355L320.606 183.105L319.922 172.363C319.531 166.406 318.555 158.105 317.773 153.809C317.09 149.512 316.113 144.336 315.82 142.285L315.137 138.672L321.387 141.016C324.805 142.285 330.957 144.922 334.961 146.68ZM217.285 147.656C210.742 154.98 204.004 167.969 201.074 179.199C199.316 185.547 198.926 189.941 198.926 202.637C198.828 219.141 199.707 226.855 203.809 242.578C211.231 271.191 228.613 304.395 250.586 332.031C260.547 344.434 282.422 365.918 293.555 374.219C319.629 393.555 346.289 405.469 373.731 410.156C395.117 413.867 418.555 412.109 432.227 405.859C435.352 404.395 437.988 403.418 438.086 403.613C438.965 404.395 426.27 418.164 420.606 422.754C393.652 444.141 352.832 450.293 315.918 438.379C281.152 427.051 235.742 393.066 209.961 358.789C183.008 323.047 166.016 276.953 166.016 239.355C166.016 205.957 183.106 168.652 206.152 151.758C210.645 148.535 221.68 141.602 222.461 141.602C222.656 141.602 220.313 144.336 217.285 147.656ZM256.836 183.496C256.836 201.562 252.148 224.707 244.922 242.969C240.723 253.516 229.492 274.609 227.832 275.098C226.758 275.488 221.973 265.234 218.164 254.883C211.816 237.109 208.984 221.387 208.984 204.102C208.984 193.555 210.84 179.492 212.305 177.93C213.379 176.855 225.098 176.074 240.527 175.879L256.836 175.781V183.496ZM327.93 205.469C337.402 211.328 344.238 216.992 356.25 228.809C388.184 260.156 410.449 299.707 419.141 340.332C420.898 348.535 421.387 354.102 421.387 364.258C421.387 379.98 419.922 385.645 413.77 394.727C409.863 400.391 409.18 400.977 404.883 401.758C398.633 403.027 379.297 401.074 366.602 397.949C332.422 389.648 302.832 372.266 275.195 344.141L266.699 335.449L271.582 329.102C282.617 314.648 294.629 292.676 302.246 272.949C309.863 253.223 317.481 223.535 318.945 207.715C319.336 204.102 319.922 201.172 320.215 201.172C320.606 201.172 324.023 203.125 327.93 205.469ZM195.02 365.234L202.148 375.977L198.34 377.93C191.699 381.25 179.981 383.984 171.484 384.082C162.402 384.18 154.883 382.617 147.949 379.102L143.066 376.66L149.902 374.902C158.398 372.754 172.266 365.723 180.664 359.473C184.18 356.836 187.207 354.59 187.5 354.59C187.793 354.59 191.211 359.375 195.02 365.234Z" fill="#71293B"/>
</svg>
