<svg width="501" height="500" viewBox="0 0 501 500" fill="none" xmlns="http://www.w3.org/2000/svg">
<path d="M210.042 16.9922C196.467 21.3867 186.995 35.4492 188.46 49.2187C189.534 59.9609 191.096 62.0117 220.393 91.3086C244.514 115.43 247.932 118.457 250.667 118.457C253.401 118.457 256.819 115.43 280.94 91.3086C312.093 60.1562 312.581 59.4727 312.678 46.3867C312.678 40.2344 312.19 37.5977 310.432 34.082C307.112 27.2461 301.936 21.875 295.784 18.8476C291.194 16.6016 288.948 16.1133 282.893 16.1133C272.249 16.1133 267.366 18.2617 258.186 27.2461L250.569 34.5703L243.538 27.5391C239.241 23.3398 234.553 19.7266 231.624 18.457C225.667 15.8203 215.608 15.1367 210.042 16.9922ZM226.057 33.1055C228.01 34.1797 233.577 38.9648 238.46 43.8477C250.471 55.957 250.667 55.957 263.85 42.9687C269.319 37.6953 274.983 32.8125 276.448 32.2266C280.843 30.5664 286.214 31.0547 289.827 33.4961C296.956 38.2812 299.397 46.0937 296.077 53.125C295.296 54.7852 284.749 66.0156 272.639 78.125L250.667 100.098L229.085 78.6133C217.268 66.7969 206.721 55.4687 205.647 53.5156C198.811 40.4297 212.971 26.3672 226.057 33.1055Z" fill="#71293B"/>
<path d="M167.268 65.332C165.022 67.7734 159.846 81.7382 159.846 85.2539C159.846 91.3086 164.729 94.6289 170.296 92.2851C172.835 91.2109 173.811 89.6484 176.448 82.9101C180.745 71.7773 181.038 69.4336 178.401 66.1132C175.764 62.7929 169.905 62.4023 167.268 65.332Z" fill="#71293B"/>
<path d="M322.835 65.332C319.71 67.7734 320.003 71.7773 323.909 82.3242C327.229 91.3086 328.889 93.164 333.967 92.9687C337.288 92.8711 340.12 90.625 340.901 87.4023C341.682 84.4726 336.214 68.6523 333.382 65.625C330.842 62.9883 325.96 62.7929 322.835 65.332Z" fill="#71293B"/>
<path d="M125.178 66.8946C123.616 68.3594 122.737 70.3125 122.737 72.3633C122.737 75.0977 124.104 76.8555 131.331 84.1797C140.901 93.75 143.44 94.6289 147.639 90.3321C151.839 86.2305 150.96 83.1055 143.147 74.2188C139.339 69.9219 135.432 65.918 134.456 65.4297C131.331 63.7696 127.62 64.3555 125.178 66.8946Z" fill="#71293B"/>
<path d="M365.901 65.7227C365.022 66.4063 361.214 70.3125 357.307 74.4141C351.741 80.3711 350.276 82.5195 350.276 84.9609C350.276 88.9648 354.085 92.7734 357.991 92.7734C361.311 92.7734 363.362 91.0156 372.151 81.3477C376.546 76.3672 377.62 74.5117 377.62 71.875C377.62 66.2109 370.198 62.3047 365.901 65.7227Z" fill="#71293B"/>
<path d="M123.811 100.195C115.999 101.172 113.167 101.953 111.604 103.418C109.065 105.957 109.065 111.524 111.507 114.258C113.557 116.504 118.44 116.797 130.549 115.234C136.507 114.453 138.264 113.867 140.12 111.816C141.292 110.352 142.268 108.203 142.268 106.934C142.268 104.199 138.753 100 135.921 99.3165C134.846 99.1212 129.378 99.4141 123.811 100.195Z" fill="#71293B"/>
<path d="M363.264 99.707C359.749 100.977 357.698 104.98 358.674 108.691C360.042 113.281 364.338 115.039 376.741 115.82L386.995 116.504L389.143 113.77C391.878 110.352 391.878 107.227 389.046 104.004C387.19 101.855 385.725 101.27 379.085 100.488C374.788 100 370.003 99.5117 368.342 99.2188C366.78 99.0234 364.436 99.2188 363.264 99.707Z" fill="#71293B"/>
<path d="M156.721 105.566C154.671 106.738 116.78 169.629 112.678 178.711C111.116 182.227 108.674 189.258 107.307 194.336C105.257 202.148 104.866 205.762 104.866 217.285C104.866 239.355 107.6 248.438 122.737 275.977C128.108 285.645 132.503 294.141 132.503 294.727C132.503 297.266 101.839 403.027 100.178 406.445C97.737 411.23 93.2448 414.551 86.1159 416.504C77.0339 419.141 71.7604 422.266 66.2917 428.125C61.2136 433.789 57.6979 441.211 56.7214 448.633C55.6472 456.055 54.6706 455.566 107.6 470.703C133.87 478.223 156.135 484.375 157.014 484.375C162.776 484.375 167.366 473.242 166.487 461.133C165.803 452.344 162.385 444.824 155.647 437.695C148.616 430.371 146.858 426.562 146.956 419.922C147.053 416.211 151.741 398.438 162.581 360.938L178.108 307.324L196.077 297.363C205.94 291.797 217.561 284.57 221.858 281.152C231.428 273.535 241.292 261.328 246.858 250.391L251.057 242.188L254.964 249.707C260.725 260.645 264.729 266.113 273.03 274.512C282.112 283.496 285.042 285.547 306.428 297.461C315.803 302.637 323.616 307.031 323.811 307.227C324.007 307.324 331.135 331.738 339.632 361.426C350.178 397.949 355.159 416.895 355.159 420.117C355.159 426.758 353.303 430.566 346.37 437.988C338.85 446.094 336.507 451.367 335.921 461.426C335.139 474.219 339.339 484.375 345.393 484.375C347.249 484.375 433.382 459.766 439.729 457.52C445.393 455.371 446.663 452.539 445.1 445.996C441.194 430.469 431.526 420.605 416.487 416.699C410.237 415.039 406.038 412.402 403.01 408.203C401.839 406.543 394.612 383.008 385.042 349.805L369.221 294.336L377.913 278.711C391.78 254.102 395.1 245.215 397.249 227.344C399.007 212.012 396.467 195.312 389.827 179.688C386.604 171.973 348.909 108.594 346.174 106.152C345.1 105.273 343.049 104.492 341.585 104.492C340.217 104.492 319.319 110.254 295.198 117.188L251.35 129.785L207.112 117.188C182.698 110.156 161.799 104.492 160.628 104.492C159.358 104.492 157.6 104.98 156.721 105.566ZM239.241 142.676L242.854 143.652V159.57C242.854 168.359 242.561 178.223 242.268 181.543L241.585 187.5H225.862C208.577 187.5 193.147 186.426 177.424 184.082C166.389 182.422 135.432 175.098 134.163 173.926C133.577 173.34 153.889 138.086 163.264 123.438C164.632 121.289 164.632 121.387 200.081 131.445C219.612 137.109 237.19 142.09 239.241 142.676ZM354.085 148.34C362.19 162.012 368.733 173.34 368.538 173.535C367.659 174.316 349.885 179.102 339.632 181.25C319.807 185.352 304.378 186.816 281.428 186.914L259.944 187.012L259.651 165.332L259.456 143.555L261.604 143.066C262.874 142.676 280.354 137.695 300.471 131.934C327.229 124.219 337.385 121.68 338.167 122.461C338.753 123.047 345.979 134.668 354.085 148.34ZM379.475 197.461C383.479 212.988 382.991 228.125 378.01 243.164C375.764 250 357.014 285.449 355.061 286.719C354.573 287.012 349.104 288.672 343.049 290.43L331.819 293.652L314.924 284.277C294.514 272.949 290.022 269.727 281.038 260.156C275.96 254.688 273.03 250.391 269.319 242.871C263.557 231.25 261.507 223.535 260.725 211.914L260.139 203.418L283.479 202.832C315.217 201.953 340.999 198.145 366.878 190.527C374.202 188.379 376.35 188.086 376.936 189.062C377.327 189.844 378.499 193.555 379.475 197.461ZM140.803 192.188C166.292 199.219 186.897 202.051 218.342 202.832L242.171 203.418L241.585 211.816C240.12 230.957 233.284 247.07 220.589 260.84C212.483 269.629 207.698 273.047 187.483 284.18L170.491 293.652L158.479 290.234L146.565 286.816L136.507 268.555C131.038 258.398 125.471 247.168 124.202 243.359C118.538 226.562 118.635 206.641 124.592 191.016C125.862 187.891 124.885 187.793 140.803 192.188ZM155.452 305.469C160.237 306.934 161.214 307.617 161.018 309.18C160.823 310.156 154.182 333.887 146.174 361.816C138.264 389.746 131.428 414.355 131.135 416.504C129.573 425.879 134.358 438.184 142.659 446.68C145.686 449.805 148.811 453.906 149.592 455.859C151.448 460.156 151.546 467.188 149.885 466.504C149.202 466.309 131.917 461.328 111.507 455.566C91.0964 449.707 74.2018 444.824 74.0065 444.727C73.8112 444.531 74.7878 442.578 76.2526 440.43C78.987 436.328 83.3815 433.594 90.5104 431.641C101.155 428.809 110.042 421.875 114.339 413.086C115.608 410.645 123.323 385.059 131.624 356.152C142.952 316.309 146.956 303.711 148.128 303.711C148.909 303.711 152.229 304.492 155.452 305.469ZM370.198 354.785C384.944 406.641 387.19 413.379 391.78 419.336C395.393 424.121 403.499 429.297 410.335 431.152C418.245 433.398 423.909 436.816 426.448 440.918C427.62 442.871 428.499 444.531 428.303 444.727C428.108 444.824 411.214 449.707 390.803 455.566C370.393 461.328 353.108 466.309 352.522 466.504C350.764 467.188 350.862 459.863 352.62 455.664C353.401 453.809 356.819 449.219 360.335 445.41C368.245 436.914 370.784 430.762 370.784 420.605C370.784 414.453 368.928 407.031 356.038 361.816C347.835 333.398 341.194 309.473 341.096 308.691C340.999 307.422 350.276 304.004 354.182 303.809C355.257 303.711 359.163 316.113 370.198 354.785Z" fill="#71293B"/>
<path d="M350.471 206.348C347.932 208.984 347.737 212.305 349.788 217.09C350.569 219.043 351.253 222.656 351.253 225.098C351.253 227.539 350.569 231.152 349.788 233.106C347.053 239.551 348.225 244.043 353.108 246.094C357.405 247.852 360.921 245.801 363.948 239.746C366.096 235.449 366.389 233.692 366.292 225.098C366.194 214.844 364.827 209.863 361.018 206.055C358.284 203.32 353.108 203.516 350.471 206.348Z" fill="#71293B"/>
<path d="M341.585 250.293C340.217 250.977 337.678 254.395 335.823 258.008C332.698 263.965 332.503 264.746 333.674 267.578C335.823 272.852 342.463 274.316 346.077 270.215C348.811 267.188 353.206 259.375 353.206 257.52C353.206 254.688 351.057 251.172 348.616 250.098C345.686 248.73 344.514 248.73 341.585 250.293Z" fill="#71293B"/>
<path d="M206.233 221.191C204.768 222.559 203.792 224.707 203.792 226.27C203.792 232.324 201.741 236.426 195.882 242.188C189.729 248.242 189.241 249.512 191.585 253.906C194.612 259.766 200.667 258.984 208.186 251.855C214.339 246.094 218.44 237.695 219.124 229.492C219.612 224.316 219.417 223.535 217.171 221.289C213.85 217.969 209.456 217.969 206.233 221.191Z" fill="#71293B"/>
<path d="M172.835 256.445C166.292 260.059 164.729 262.012 164.729 266.113C164.729 269.531 168.831 273.438 172.249 273.438C176.253 273.438 186.995 266.309 187.776 263.184C188.948 258.496 184.749 252.93 180.061 252.93C179.378 252.93 176.155 254.492 172.835 256.445Z" fill="#71293B"/>
</svg>
